<?xml version="1.0" encoding="iso-8859-1"?>
<!-- Uploaded to: SVG Repo, www.svgrepo.com, Generator: SVG Repo Mixer Tools -->
<svg height="800px" width="800px" version="1.1" id="Layer_1" xmlns="http://www.w3.org/2000/svg" xmlns:xlink="http://www.w3.org/1999/xlink" 
	 viewBox="0 0 512 512" xml:space="preserve">
<polygon style="fill:#E0E0E2;" points="88.371,287.219 88.371,412.097 261.407,512 423.629,418.342 423.629,293.464 
	250.593,193.561 "/>
<polygon style="fill:#C6C5CB;" points="110.001,99.903 110.001,287.219 261.407,374.635 261.407,187.317 "/>
<polygon style="fill:#ACABB1;" points="391.185,112.39 391.185,299.707 261.407,374.635 261.407,187.317 "/>
<polygon style="fill:#B77FDA;" points="99.186,81.171 239.778,0 401.999,93.658 261.407,174.829 "/>
<polygon style="fill:#A258CB;" points="99.186,81.171 99.186,93.658 261.407,187.317 261.407,174.829 "/>
<polygon style="fill:#7F33AD;" points="261.407,187.317 401.999,106.146 401.999,93.658 261.407,174.829 "/>
<polygon style="fill:#51216D;" points="120.815,81.171 239.778,12.488 380.37,93.658 261.407,162.342 "/>
<path style="fill:#C6C5CB;" d="M286.046,115.834v-8.01l0,0c0.004-2.649-1.736-5.299-5.218-7.31c-6.963-4.021-18.358-4.021-25.321,0
	c-3.483,2.01-5.226,4.66-5.227,7.31l0,0v8.01l0,0c-0.004,2.649,1.732,5.299,5.212,7.307c6.956,4.016,18.349,4.016,25.321,0
	C284.301,121.133,286.045,118.484,286.046,115.834L286.046,115.834z"/>
<path style="fill:#E0E0E2;" d="M255.507,100.515c-6.963,4.021-6.969,10.595-0.015,14.611c6.956,4.016,18.349,4.016,25.321,0
	c6.972-4.016,6.978-10.59,0.015-14.611S262.47,96.494,255.507,100.515z"/>
<path style="fill:#C6C5CB;" d="M323.956,93.947v-8.01l0,0c0.004-2.649-1.736-5.299-5.218-7.31c-6.963-4.021-18.358-4.021-25.321,0
	c-3.483,2.01-5.226,4.66-5.227,7.31l0,0v8.01l0,0c-0.004,2.649,1.732,5.299,5.212,7.307c6.955,4.016,18.349,4.016,25.321,0
	C322.21,99.245,323.955,96.597,323.956,93.947L323.956,93.947z"/>
<path style="fill:#E0E0E2;" d="M293.417,78.628c-6.963,4.02-6.969,10.595-0.015,14.611c6.955,4.016,18.349,4.016,25.321,0
	c6.972-4.016,6.978-10.591,0.015-14.611C311.775,74.607,300.38,74.607,293.417,78.628z"/>
<polygon style="fill:#7F33AD;" points="131.63,87.415 239.778,24.975 239.778,12.488 120.815,81.171 "/>
<polygon style="fill:#A258CB;" points="239.778,24.975 369.555,99.903 380.37,93.658 239.778,12.488 "/>
<g>
	<polygon style="fill:#59A4FF;" points="131.63,187.317 131.63,137.365 153.259,149.854 153.259,199.805 	"/>
	<polygon style="fill:#59A4FF;" points="174.89,212.293 174.89,162.342 196.519,174.829 196.519,224.781 	"/>
	<polygon style="fill:#59A4FF;" points="218.149,237.268 218.149,187.317 239.778,199.805 239.778,249.756 	"/>
	<polygon style="fill:#59A4FF;" points="131.63,274.57 131.63,224.619 153.259,237.107 153.259,287.057 	"/>
	<polygon style="fill:#59A4FF;" points="174.89,299.546 174.89,249.595 196.519,262.082 196.519,312.034 	"/>
	<polygon style="fill:#59A4FF;" points="218.149,324.634 218.149,274.683 239.778,287.17 239.778,337.122 	"/>
</g>
<g>
	<polygon style="fill:#2487FF;" points="304.666,237.268 304.666,187.317 283.037,199.805 283.037,249.756 	"/>
	<polygon style="fill:#2487FF;" points="337.11,218.536 337.11,168.585 315.481,181.073 315.481,231.025 	"/>
	<polygon style="fill:#2487FF;" points="304.666,324.683 304.666,274.732 283.037,287.219 283.037,337.171 	"/>
	<polygon style="fill:#2487FF;" points="337.11,305.951 337.11,256 315.481,268.488 315.481,318.439 	"/>
	<polygon style="fill:#2487FF;" points="369.555,199.805 369.555,149.854 347.925,162.342 347.925,212.293 	"/>
	<polygon style="fill:#2487FF;" points="369.555,287.219 369.555,237.268 347.925,249.756 347.925,299.707 	"/>
</g>
<polygon style="fill:#ACABB1;" points="261.407,512 423.629,418.342 423.629,293.464 261.407,387.122 "/>
<g>
	<polygon style="fill:#2487FF;" points="304.666,449.561 304.666,399.61 283.037,412.097 283.037,462.049 	"/>
	<polygon style="fill:#2487FF;" points="337.11,430.829 337.11,380.878 315.481,393.365 315.481,443.317 	"/>
	<polygon style="fill:#2487FF;" points="369.555,412.097 369.555,362.146 347.925,374.635 347.925,424.585 	"/>
	<polygon style="fill:#2487FF;" points="401.999,393.365 401.999,343.415 380.37,355.903 380.37,405.854 	"/>
</g>
<polygon style="fill:#E0E0E2;" points="164.074,60.878 239.778,17.171 283.037,42.146 283.037,57.756 207.334,101.464 
	164.074,76.488 "/>
<polygon style="fill:#A258CB;" points="104.593,476.093 180.297,432.386 223.556,457.361 147.852,503.91 "/>
<polygon style="fill:#D8D8DA;" points="164.074,60.878 164.074,76.488 207.334,101.464 207.334,85.854 "/>
<g>
	<polygon style="fill:#C6C5CB;" points="207.334,101.464 283.037,57.756 283.037,42.146 207.334,85.854 	"/>
	<polygon style="fill:#C6C5CB;" points="88.371,287.219 88.371,412.097 261.407,512 261.407,387.122 	"/>
</g>
<g>
	<polygon style="fill:#59A4FF;" points="109.979,349.668 131.608,362.133 131.608,412.085 109.979,399.597 	"/>
	<polygon style="fill:#59A4FF;" points="153.246,449.509 153.246,374.581 196.505,399.557 196.506,474.532 	"/>
</g>
<polygon style="fill:#1D81CD;" points="173.779,461.386 175.971,462.654 175.971,387.702 173.779,386.437 "/>
<g>
	<path style="fill:#FFFFFF;" d="M177.876,435.423c-0.189,0-0.379-0.049-0.548-0.146c-0.34-0.195-0.548-0.558-0.548-0.949v-12.489
		c0-0.392,0.209-0.753,0.548-0.949l2.6-1.5c0.522-0.302,1.193-0.123,1.497,0.401c0.303,0.523,0.123,1.194-0.401,1.497l-2.051,1.184
		v9.958l0.956-0.553c0.522-0.302,1.193-0.123,1.497,0.401c0.303,0.523,0.123,1.194-0.401,1.497l-2.6,1.5
		C178.254,435.374,178.065,435.423,177.876,435.423z"/>
	<path style="fill:#FFFFFF;" d="M168.458,430.015c-0.189,0-0.379-0.049-0.548-0.146c-0.34-0.195-0.548-0.558-0.548-0.949v-12.488
		c0-0.392,0.209-0.753,0.548-0.949l2.6-1.5c0.522-0.302,1.193-0.123,1.497,0.401c0.303,0.523,0.123,1.194-0.401,1.497l-2.051,1.184
		v9.957l0.956-0.553c0.522-0.303,1.193-0.123,1.497,0.401c0.303,0.523,0.123,1.194-0.401,1.497l-2.6,1.5
		C168.837,429.966,168.648,430.015,168.458,430.015z"/>
</g>
<polygon style="fill:#59A4FF;" points="218.149,399.632 239.778,412.097 239.778,462.049 218.149,449.561 "/>
<g>
	<path style="fill:#51216D;" d="M278.91,284.098l-11.903-6.872c-0.525-0.303-0.704-0.973-0.401-1.497l0,0
		c0.303-0.525,0.973-0.704,1.497-0.401l11.903,6.872c0.525,0.303,0.704,0.973,0.401,1.497l0,0
		C280.105,284.221,279.434,284.4,278.91,284.098z"/>
	<path style="fill:#51216D;" d="M272.455,208.589l-5.448-3.145c-0.525-0.303-0.704-0.973-0.401-1.497l0,0
		c0.303-0.525,0.973-0.704,1.497-0.401l5.448,3.145c0.525,0.303,0.704,0.973,0.401,1.497l0,0
		C273.649,208.712,272.979,208.892,272.455,208.589z"/>
	<path style="fill:#51216D;" d="M272.321,242.774l-5.448-3.145c-0.525-0.303-0.704-0.973-0.401-1.497l0,0
		c0.303-0.525,0.973-0.704,1.497-0.401l5.448,3.145c0.525,0.303,0.704,0.973,0.401,1.497l0,0
		C273.516,242.896,272.845,243.076,272.321,242.774z"/>
	<path style="fill:#51216D;" d="M272.455,313.206l-5.448-3.145c-0.525-0.303-0.704-0.973-0.401-1.497l0,0
		c0.303-0.525,0.973-0.704,1.497-0.401l5.448,3.145c0.525,0.303,0.704,0.973,0.401,1.497l0,0
		C273.649,313.329,272.979,313.509,272.455,313.206z"/>
	<path style="fill:#51216D;" d="M272.455,347.682l-5.448-3.145c-0.525-0.303-0.704-0.973-0.401-1.497l0,0
		c0.303-0.525,0.973-0.704,1.497-0.401l5.448,3.145c0.525,0.303,0.704,0.973,0.401,1.497l0,0
		C273.649,347.806,272.979,347.985,272.455,347.682z"/>
</g>
<polygon style="fill:#A258CB;" points="273.003,196.734 279.459,200.462 279.459,207.917 285.914,211.644 285.914,204.19 
	292.371,207.917 292.371,230.282 285.914,226.555 285.914,219.099 279.459,215.372 279.459,222.828 273.003,219.099 "/>
<g>
	<polygon style="fill:#B77FDA;" points="273.003,196.734 279.459,193.006 285.914,196.734 279.459,200.462 	"/>
	<polygon style="fill:#B77FDA;" points="285.914,204.19 292.371,200.462 298.827,204.19 292.371,207.917 	"/>
</g>
<polygon style="fill:#7F33AD;" points="285.914,196.734 285.914,204.19 279.459,207.917 279.459,200.462 "/>
<polygon style="fill:#B77FDA;" points="285.914,211.644 279.459,207.917 285.914,204.19 "/>
<g>
	<polygon style="fill:#7F33AD;" points="298.827,204.19 298.827,226.555 292.371,230.282 292.371,207.917 	"/>
	<polygon style="fill:#7F33AD;" points="279.459,222.828 285.914,219.099 279.459,215.372 	"/>
</g>
<polygon style="fill:#A258CB;" points="273.003,231.6 273.003,253.965 292.371,265.147 292.371,242.782 "/>
<polygon style="fill:#B77FDA;" points="279.459,242.782 279.459,250.237 285.914,253.965 285.914,246.509 "/>
<polygon style="fill:#7F33AD;" points="279.459,250.237 285.914,246.509 279.459,242.782 "/>
<polygon style="fill:#B77FDA;" points="273.003,231.6 279.459,227.872 298.827,239.055 292.371,242.782 "/>
<polygon style="fill:#7F33AD;" points="292.371,265.147 298.827,261.42 298.827,239.055 292.371,242.782 "/>
<polygon style="fill:#A258CB;" points="273.003,268.329 273.003,275.783 279.459,279.511 279.459,294.421 285.914,298.149 
	285.914,283.238 292.371,286.967 292.371,279.511 "/>
<polygon style="fill:#B77FDA;" points="273.003,268.329 279.459,264.601 298.827,275.783 292.371,279.511 "/>
<g>
	<polygon style="fill:#7F33AD;" points="298.827,275.783 298.827,283.238 292.371,286.967 292.371,279.511 	"/>
	<path style="fill:#7F33AD;" d="M285.914,298.149c0,0,6.03-3.302,6.456-3.727c0.426-0.426,0-7.455,0-7.455l-6.456-3.727V298.149z"/>
</g>
<polygon style="fill:#A258CB;" points="273.003,301.33 273.003,323.695 292.371,334.878 292.371,327.423 279.459,319.968 
	285.914,323.695 285.914,316.24 279.459,312.512 292.371,319.968 292.371,312.512 "/>
<polygon style="fill:#B77FDA;" points="273.003,301.33 279.459,297.603 298.827,308.785 292.371,312.512 "/>
<g>
	<polygon style="fill:#7F33AD;" points="292.371,319.968 298.827,316.24 298.827,308.785 292.371,312.512 	"/>
	<polygon style="fill:#7F33AD;" points="285.914,323.695 292.371,319.968 285.914,316.24 	"/>
</g>
<polygon style="fill:#B77FDA;" points="292.371,319.968 298.827,323.695 292.371,327.423 285.914,323.695 285.914,323.082 "/>
<polygon style="fill:#7F33AD;" points="292.371,334.878 298.827,331.15 298.827,323.695 292.371,327.423 "/>
<polygon style="fill:#A258CB;" points="273.003,358.56 273.003,336.195 279.459,339.922 279.459,354.833 292.371,362.288 
	292.371,369.743 "/>
<polygon style="fill:#B77FDA;" points="279.459,332.468 273.003,336.195 279.459,339.922 285.914,336.195 "/>
<polygon style="fill:#7F33AD;" points="285.914,336.195 285.914,351.106 279.459,354.833 279.459,339.922 "/>
<polygon style="fill:#B77FDA;" points="292.371,362.288 298.827,358.56 285.914,351.106 279.459,354.833 "/>
<g>
	<polygon style="fill:#7F33AD;" points="292.371,369.743 298.827,366.015 298.827,358.56 292.371,362.288 	"/>
	<polygon style="fill:#7F33AD;" points="285.914,316.853 279.459,313.126 279.459,312.512 285.914,316.24 	"/>
</g>
<polygon style="fill:#B77FDA;" points="285.914,323.695 279.459,319.968 279.459,319.355 285.914,323.082 "/>
<g>
	<path style="fill:#E0E0E2;" d="M114.815,461.459V374.44h-4.815v87.019c0,0.357,0.234,0.714,0.702,0.984
		c0.937,0.541,2.471,0.542,3.408,0.003C114.582,462.175,114.817,461.818,114.815,461.459z"/>
	<path style="fill:#E0E0E2;" d="M187.918,502.52v-87.019h-4.815v87.019c0,0.356,0.234,0.714,0.702,0.984
		c0.937,0.541,2.471,0.542,3.408,0.003C187.685,503.235,187.919,502.878,187.918,502.52z"/>
</g>
<path style="fill:#B77FDA;" d="M218.149,399.57c-0.003-0.097-0.011-0.195-0.016-0.293c-0.005-0.102-0.006-0.208-0.017-0.306
	c-0.934-21.29-17.535-47.554-37.723-59.21c-10.979-6.338-20.894-7.125-27.81-3.282l-0.007-0.006l-32.761,18.726l0.009,0.008
	c-5.816,3.295-9.481,9.892-9.815,19.261c-0.001,0.053-0.008,0.101-0.008,0.155c0,0.001,0,0.002,0,0.003c0,0.002,0,0.003,0,0.004l0,0
	l0,0h0.001c0.004,3.424,2.428,7.623,5.393,9.333c2.964,1.712,5.39,0.313,5.393-3.106l0.001,0.001
	c0.004,3.424,2.428,7.623,5.393,9.334c2.964,1.712,5.39,0.313,5.393-3.106l0.001,0.001c0.004,3.424,2.428,7.623,5.393,9.334
	c2.964,1.712,5.39,0.313,5.393-3.106l0.001,0.001c0.004,3.424,2.428,7.623,5.393,9.333c2.964,1.712,5.39,0.313,5.393-3.106
	l0.001,0.001c0.004,3.424,2.428,7.623,5.393,9.333c2.964,1.712,5.39,0.313,5.394-3.106l0.001,0.001
	c0.004,3.424,2.428,7.623,5.393,9.333c2.964,1.712,5.39,0.313,5.394-3.106l0.001,0.001c0.004,3.424,2.428,7.623,5.393,9.334
	c2.964,1.712,5.39,0.313,5.394-3.106l0,0l0,0l0,0l0.021-0.011c-0.002,0.081-0.021,0.166-0.021,0.247c0,3.454,2.448,4.868,5.44,3.141
	c2.992-1.727,5.44-5.966,5.44-9.421c0,3.454,2.448,4.867,5.44,3.14c2.992-1.727,5.44-5.966,5.44-9.421
	c0,3.454,2.448,4.867,5.44,3.14c2.992-1.727,5.44-5.967,5.44-9.422c0-0.017-0.002-0.031-0.002-0.048L218.149,399.57z
	 M196.39,412.181c0-0.059-0.006-0.111-0.007-0.168l0.023-0.013C196.403,412.06,196.39,412.122,196.39,412.181z M207.269,405.9
	c0-0.038-0.004-0.071-0.005-0.108l0.015-0.008C207.278,405.822,207.269,405.862,207.269,405.9z"/>
<path style="fill:#A258CB;" d="M185.51,418.225c0-0.001,0-0.003,0-0.004c0-0.004-0.001-0.009-0.001-0.014
	c-0.656-21.39-17.384-48.027-37.753-59.787c-20.137-11.627-36.705-4.594-37.715,15.502c-0.024,0.225-0.041,0.458-0.041,0.703
	c0,0.001,0,0.002,0,0.003c0,0.001,0,0.003,0,0.005h0.001c0.004,3.424,2.428,7.623,5.393,9.333c2.964,1.712,5.39,0.313,5.393-3.106
	l0.001,0.001c0.004,3.424,2.428,7.623,5.393,9.334c2.964,1.712,5.39,0.313,5.393-3.106l0.001,0.001
	c0.004,3.424,2.428,7.623,5.393,9.333c2.964,1.712,5.39,0.313,5.393-3.106l0.001,0.001c0.004,3.424,2.428,7.623,5.393,9.333
	c2.964,1.712,5.39,0.313,5.393-3.106l0.001,0.001c0.004,3.424,2.428,7.623,5.393,9.333c2.964,1.712,5.39,0.313,5.393-3.106
	l0.001,0.001c0.004,3.424,2.428,7.623,5.393,9.333c2.964,1.712,5.39,0.313,5.394-3.106l0.001,0.001
	c0.004,3.424,2.428,7.623,5.393,9.333c2.964,1.712,5.39,0.313,5.394-3.106l0,0C185.51,418.227,185.51,418.226,185.51,418.225z"/>
</svg>